<?xml version="1.0" encoding="UTF-8" standalone="no"?>
<svg
   xmlns:dc="http://purl.org/dc/elements/1.1/"
   xmlns:cc="http://creativecommons.org/ns#"
   xmlns:rdf="http://www.w3.org/1999/02/22-rdf-syntax-ns#"
   xmlns:svg="http://www.w3.org/2000/svg"
   xmlns="http://www.w3.org/2000/svg"
   xmlns:sodipodi="http://sodipodi.sourceforge.net/DTD/sodipodi-0.dtd"
   xmlns:inkscape="http://www.inkscape.org/namespaces/inkscape"
   width="80.168404mm"
   height="80.169098mm"
   viewBox="0 0 80.168406 80.169096"
   version="1.1"
   id="svg8"
   inkscape:version="1.0.2 (e86c870879, 2021-01-15)"
   sodipodi:docname="yinyangyuan.svg">
  <defs
     id="defs2">
    <inkscape:path-effect
       effect="spiro"
       id="path-effect903"
       is_visible="true"
       lpeversion="1" />
    <inkscape:path-effect
       effect="spiro"
       id="path-effect871"
       is_visible="true"
       lpeversion="1" />
    <inkscape:path-effect
       effect="spiro"
       id="path-effect867"
       is_visible="true"
       lpeversion="1" />
    <inkscape:path-effect
       effect="spiro"
       id="path-effect859"
       is_visible="true"
       lpeversion="1" />
  </defs>
  <sodipodi:namedview
     id="base"
     pagecolor="#ffffff"
     bordercolor="#666666"
     borderopacity="1.0"
     inkscape:pageopacity="0.0"
     inkscape:pageshadow="2"
     inkscape:zoom="1.42"
     inkscape:cx="228.47748"
     inkscape:cy="230.15221"
     inkscape:document-units="mm"
     inkscape:current-layer="layer1"
     inkscape:document-rotation="0"
     showgrid="false"
     showguides="true"
     inkscape:guide-bbox="true"
     inkscape:window-width="1513"
     inkscape:window-height="1005"
     inkscape:window-x="283"
     inkscape:window-y="27"
     inkscape:window-maximized="0" />
  <metadata
     id="metadata5">
    <rdf:RDF>
      <cc:Work
         rdf:about="">
        <dc:format>image/svg+xml</dc:format>
        <dc:type
           rdf:resource="http://purl.org/dc/dcmitype/StillImage" />
        <dc:title></dc:title>
      </cc:Work>
    </rdf:RDF>
  </metadata>
  <g
     inkscape:label="Layer 1"
     inkscape:groupmode="layer"
     id="layer1"
     transform="translate(-87.96163,-137.40378)">
    <path
       id="path949"
       style="display:none;fill:none;fill-opacity:1;stroke:#000000;stroke-width:1.42875;stroke-linecap:round;stroke-linejoin:round;stroke-miterlimit:4;stroke-dasharray:none;stroke-opacity:1"
       d="m 180.253,177.76512 c 0.80173,0.005 1.60347,0.01 2.4052,0.0142 0.59441,-0.33812 0.5839,-0.93481 0.52731,-1.53976 -0.18433,-9.23508 -5.28778,-18.25827 -13.2556,-22.98671 -4.5542,-2.76269 -9.90463,-4.21754 -15.2346,-4.05556 -8.98548,0.26143 -17.74366,5.14589 -22.49731,12.80876 -2.77199,4.39236 -4.32136,9.56071 -4.34058,14.75959 0.34639,0.63764 0.99505,0.56992 1.62337,0.54967 0.60625,0.008 1.21249,0.0152 1.81874,0.0227 m 24.25906,-12.42585 c 2.53644,0.20226 4.52347,2.80751 4.01473,5.30849 -0.35912,2.53901 -3.13834,4.34966 -5.6066,3.6446 -2.4997,-0.55232 -4.08523,-3.44936 -3.20821,-5.85381 0.62721,-1.99526 2.72442,-3.34062 4.80008,-3.09928 z"
       sodipodi:nodetypes="cccccccccccccc" />
    <g
       id="g1065"
       style="fill:#0000ff"
       transform="matrix(1.2668792,0,0,1.2692674,-34.172766,-47.791815)">
      <g
         id="g1059"
         style="fill:#0000ff">
        <path
           id="path1032"
           style="fill:#0000ff;stroke:#00000f;stroke-width:0.291042;stroke-linecap:round;stroke-linejoin:round;stroke-miterlimit:4;stroke-dasharray:none;stroke-opacity:1"
           d="m 112.44466,150.30659 c 9.82349,-5.67159 21.92652,-5.67158 31.75,1e-5 l -0.25477,-0.1969 c -5.83844,-3.37083 -13.22211,-2.33312 -17.90525,2.51641 -4.68314,4.84954 -5.46252,12.26492 -1.99514,17.81311 2.98151,5.17716 2.39482,11.88305 -1.57329,16.61206 -3.96811,4.72902 -10.47024,6.47126 -16.27124,4.35987 -5.80099,-2.11139 -9.662023,-7.62551 -9.643668,-13.70353 0.01835,-11.2479 6.069868,-21.72944 15.893358,-27.40103 z"
           sodipodi:nodetypes="sccscsscs" />
      </g>
    </g>
    <g
       id="g1074"
       transform="matrix(-0.6334396,1.0992178,-1.0971496,-0.6346337,404.08139,149.30572)"
       style="fill:#00ff00">
      <g
         id="g1072"
         style="fill:#00ff00">
        <path
           id="path1070"
           style="fill:#00ff00;stroke:#00000f;stroke-width:0.291042;stroke-linecap:round;stroke-linejoin:round;stroke-miterlimit:4;stroke-dasharray:none;stroke-opacity:1"
           d="m 112.44466,150.30659 c 9.82349,-5.67159 21.92652,-5.67158 31.75,1e-5 l -0.25477,-0.1969 c -5.83844,-3.37083 -13.22211,-2.33312 -17.90525,2.51641 -4.68314,4.84954 -5.46252,12.26492 -1.99514,17.81311 2.98151,5.17716 2.39482,11.88305 -1.57329,16.61206 -3.96811,4.72902 -10.47024,6.47126 -16.27124,4.35987 -5.80099,-2.11139 -9.662023,-7.62551 -9.643668,-13.70353 0.01835,-11.2479 6.069868,-21.72944 15.893358,-27.40103 z"
           sodipodi:nodetypes="sccscsscs" />
      </g>
    </g>
    <g
       id="g1080"
       transform="matrix(-0.6334396,-1.0992178,1.0971496,-0.6346337,14.857888,430.96978)"
       style="fill:#ff0000">
      <g
         id="g1078"
         style="fill:#ff0000">
        <path
           id="path1076"
           style="fill:#ff0000;stroke:#00000f;stroke-width:0.291042;stroke-linecap:round;stroke-linejoin:round;stroke-miterlimit:4;stroke-dasharray:none;stroke-opacity:1"
           d="m 112.44466,150.30659 c 9.82349,-5.67159 21.73476,-6.0303 31.55824,-0.35871 v 0 c -5.83844,-3.37083 -13.28512,-2.1713 -17.96826,2.67823 -4.68314,4.84954 -5.46252,12.26492 -1.99514,17.81311 2.98151,5.17716 2.39482,11.88305 -1.57329,16.61206 -3.96811,4.72902 -10.47024,6.47126 -16.27124,4.35987 -5.80099,-2.11139 -9.662023,-7.62551 -9.643668,-13.70353 0.01835,-11.2479 6.069868,-21.72944 15.893358,-27.40103 z"
           sodipodi:nodetypes="sccscsscs" />
      </g>
    </g>
    <ellipse
       style="fill:#ffff00;stroke:none;stroke-width:0.70779;stroke-linecap:round;stroke-linejoin:round;stroke-miterlimit:4;stroke-dasharray:none;stroke-opacity:1"
       id="path1084"
       cx="105.89513"
       cy="177.55824"
       rx="5.9629631"
       ry="5.9742041" />
    <ellipse
       style="fill:#00ffff;stroke:none;stroke-width:0.70779;stroke-linecap:round;stroke-linejoin:round;stroke-miterlimit:4;stroke-dasharray:none;stroke-opacity:1"
       id="circle1086"
       cx="139.37141"
       cy="194.91255"
       rx="5.9629631"
       ry="5.9742041" />
    <ellipse
       style="fill:#ff00ff;stroke:none;stroke-width:0.70779;stroke-linecap:round;stroke-linejoin:round;stroke-miterlimit:4;stroke-dasharray:none;stroke-opacity:1"
       id="circle1088"
       cx="139.19637"
       cy="159.71613"
       rx="5.9629631"
       ry="5.9742041" />
  </g>
</svg>
